<svg width="34" height="31" viewBox="0 0 34 31" fill="none" xmlns="http://www.w3.org/2000/svg">
    <rect x="1.41667" y="18.2497" width="4.27778" height="4.27778" rx="2.13889" stroke="white" stroke-width="1.83333" />
    <rect x="10.3796" y="8.47209" width="4.27778" height="4.27778" rx="2.13889" stroke="white" stroke-width="1.83333" />
    <rect x="19.3424" y="18.2497" width="4.27778" height="4.27778" rx="2.13889" stroke="white" stroke-width="1.83333" />
    <rect x="28.3053" y="8.47209" width="4.27778" height="4.27778" rx="2.13889" stroke="white" stroke-width="1.83333" />
    <path fill-rule="evenodd" clip-rule="evenodd"
        d="M24.334 2.66683H9.66732C6.62975 2.66683 4.16732 5.12927 4.16732 8.16683V15.8461C3.9674 15.8195 3.76341 15.8057 3.55621 15.8057C3.13295 15.8057 2.72309 15.8631 2.33398 15.9705V8.16683C2.33398 4.11675 5.61723 0.833496 9.66732 0.833496H24.334C27.6748 0.833496 30.4938 3.06749 31.3788 6.1231C31.0772 6.06067 30.7648 6.02786 30.4448 6.02786C30.1022 6.02786 29.7683 6.06545 29.4472 6.13674C28.6394 4.10395 26.6545 2.66683 24.334 2.66683ZM29.834 15.1542V22.8335C29.834 25.8711 27.3715 28.3335 24.334 28.3335H9.66732C7.34672 28.3335 5.36179 26.8963 4.55406 24.8634C4.23283 24.9348 3.89891 24.9724 3.55621 24.9724C3.23627 24.9724 2.92399 24.9396 2.62254 24.8772C3.50744 27.9328 6.3265 30.1668 9.66732 30.1668H24.334C28.3841 30.1668 31.6673 26.8836 31.6673 22.8335V15.0297C31.2781 15.1371 30.8681 15.1945 30.4448 15.1945C30.2377 15.1945 30.0338 15.1808 29.834 15.1542Z"
        fill="white" />
    <path fill-rule="evenodd" clip-rule="evenodd"
        d="M27.7873 12.1209L22.9869 17.7293C23.5324 18.0388 23.9733 18.5113 24.2434 19.0807L29.1309 13.3706C28.5655 13.101 28.0959 12.6628 27.7873 12.1209ZM9.84238 12.0867L5.02832 17.7109C5.57726 18.0135 6.02319 18.48 6.30014 19.0444L11.1709 13.354C10.609 13.0774 10.1444 12.6332 9.84238 12.0867ZM13.8403 13.3666L18.7233 19.0714C18.9951 18.5034 19.4373 18.0324 19.9837 17.7246L15.1802 12.1127C14.8732 12.6557 14.4048 13.0953 13.8403 13.3666Z"
        fill="white" />
</svg>