<svg width="34" height="39" viewBox="0 0 34 39" fill="none" xmlns="http://www.w3.org/2000/svg">
    <path fill-rule="evenodd" clip-rule="evenodd"
        d="M16.9995 0.611084C15.4653 0.611084 14.2217 1.85474 14.2217 3.38886C14.2217 4.63265 15.0392 5.68551 16.1661 6.03947V8.40273C11.3404 8.56403 7.55502 10.113 7.55502 12C7.55502 12.0152 7.55526 12.0305 7.55576 12.0457C7.55526 12.0613 7.55502 12.0769 7.55502 12.0926V12.9512L5.78667 11.9063C5.97382 10.7952 5.46881 9.63526 4.43569 9.03878C3.10709 8.27172 1.40823 8.72693 0.641171 10.0555C-0.125892 11.3841 0.329317 13.083 1.65791 13.85C2.77783 14.4966 4.16084 14.2747 5.02708 13.3933L7.55502 14.8871V24.1128L5.02708 25.6066C4.16085 24.7252 2.77783 24.5033 1.65791 25.1499C0.329317 25.917 -0.125892 27.6158 0.64117 28.9444C1.40823 30.273 3.10709 30.7282 4.43568 29.9611C5.46881 29.3647 5.97382 28.2048 5.78667 27.0937L7.55502 26.0487V26.9074C7.55502 28.8428 11.3404 30.4314 16.1661 30.5969V32.9605C15.0392 33.3144 14.2217 34.3673 14.2217 35.6111C14.2217 37.1452 15.4653 38.3889 16.9995 38.3889C18.5336 38.3889 19.7772 37.1452 19.7772 35.6111C19.7772 34.3673 18.9598 33.3144 17.8328 32.9605V30.5969C22.6585 30.4314 26.4439 28.8428 26.4439 26.9074V26.0487L28.2122 27.0936C28.025 28.2047 28.53 29.3647 29.5632 29.9611C30.8918 30.7282 32.5906 30.273 33.3577 28.9444C34.1248 27.6158 33.6695 25.917 32.341 25.1499C31.221 24.5033 29.838 24.7252 28.9718 25.6066L26.4439 24.1128V14.8871L28.9718 13.3934C29.838 14.2747 31.221 14.4966 32.341 13.85C33.6695 13.083 34.1248 11.3841 33.3577 10.0555C32.5906 8.72693 30.8918 8.27172 29.5632 9.03878C28.53 9.63526 28.025 10.7952 28.2122 11.9063L26.4439 12.9512V12.0926C26.4439 12.0769 26.4437 12.0613 26.4432 12.0457C26.4437 12.0305 26.4439 12.0152 26.4439 12C26.4439 10.113 22.6585 8.56403 17.8328 8.40273V6.03947C18.9598 5.68551 19.7772 4.63265 19.7772 3.38886C19.7772 1.85474 18.5336 0.611084 16.9995 0.611084ZM15.8883 3.38886C15.8883 4.00251 16.3858 4.49997 16.9995 4.49997C17.6131 4.49997 18.1106 4.00251 18.1106 3.38886C18.1106 2.77521 17.6131 2.27775 16.9995 2.27775C16.3858 2.27775 15.8883 2.77521 15.8883 3.38886ZM9.22168 14.049V16.6917C9.23715 16.7253 9.28728 16.809 9.43037 16.9417C9.7032 17.1946 10.1893 17.4991 10.9297 17.7895C12.4004 18.3662 14.5458 18.7592 16.9995 18.7592C19.4531 18.7592 21.5985 18.3662 23.0692 17.7895C23.8097 17.4991 24.2957 17.1946 24.5685 16.9417C24.7116 16.809 24.7618 16.7253 24.7772 16.6917V14.049C23.0735 14.9927 20.2253 15.6111 16.9995 15.6111C13.7736 15.6111 10.9255 14.9927 9.22168 14.049ZM9.28035 12.0324C9.31268 11.9911 9.36041 11.938 9.43037 11.8731C9.7032 11.6201 10.1893 11.3156 10.9297 11.0253C12.4004 10.4485 14.5458 10.0555 16.9995 10.0555C19.4531 10.0555 21.5985 10.4485 23.0692 11.0253C23.8097 11.3156 24.2957 11.6201 24.5685 11.8731C24.6385 11.938 24.6862 11.9911 24.7186 12.0324C24.688 12.0687 24.6448 12.1143 24.5841 12.1692C24.3123 12.4149 23.8256 12.7125 23.0825 12.9967C21.6076 13.5606 19.4574 13.9444 16.9995 13.9444C14.5416 13.9444 12.3914 13.5606 10.9165 12.9967C10.1733 12.7125 9.68661 12.4149 9.41487 12.1692C9.35412 12.1143 9.31088 12.0687 9.28035 12.0324ZM24.7772 18.8238V21.7843C24.7618 21.8179 24.7116 21.9016 24.5685 22.0343C24.2957 22.2872 23.8097 22.5917 23.0692 22.8821C21.5985 23.4588 19.4531 23.8518 16.9995 23.8518C14.5458 23.8518 12.4004 23.4588 10.9297 22.8821C10.1893 22.5917 9.7032 22.2872 9.43037 22.0343C9.28728 21.9016 9.23715 21.8179 9.22168 21.7843V18.8238C10.9255 19.7917 13.7736 20.4259 16.9995 20.4259C20.2253 20.4259 23.0735 19.7917 24.7772 18.8238ZM16.9995 25.5185C13.7736 25.5185 10.9255 24.8843 9.22168 23.9164V26.8769C9.23715 26.9105 9.28728 26.9942 9.43037 27.1269C9.7032 27.3798 10.1893 27.6843 10.9297 27.9747C12.4004 28.5514 14.5458 28.9444 16.9995 28.9444C19.4531 28.9444 21.5985 28.5514 23.0692 27.9747C23.8097 27.6843 24.2957 27.3798 24.5685 27.1269C24.7116 26.9942 24.7618 26.9105 24.7772 26.8769V23.9164C23.0735 24.8843 20.2253 25.5185 16.9995 25.5185ZM24.7833 26.8601C24.7836 26.8601 24.783 26.8632 24.7805 26.8693C24.7818 26.8631 24.783 26.8601 24.7833 26.8601ZM9.21562 26.8601C9.21591 26.8601 9.21713 26.8631 9.2184 26.8693C9.21596 26.8632 9.21532 26.8601 9.21562 26.8601ZM16.9995 36.7222C16.3858 36.7222 15.8883 36.2247 15.8883 35.6111C15.8883 34.9974 16.3858 34.5 16.9995 34.5C17.6131 34.5 18.1106 34.9974 18.1106 35.6111C18.1106 36.2247 17.6131 36.7222 16.9995 36.7222ZM30.3965 10.4822C29.8651 10.789 29.683 11.4685 29.9898 12C30.2966 12.5314 30.9762 12.7135 31.5076 12.4067C32.0391 12.0998 32.2211 11.4203 31.9143 10.8889C31.6075 10.3574 30.9279 10.1753 30.3965 10.4822ZM2.08455 28.1111C1.77772 27.5796 1.9598 26.9001 2.49124 26.5933C3.02268 26.2864 3.70222 26.4685 4.00905 27C4.31587 27.5314 4.13379 28.2109 3.60235 28.5178C3.07092 28.8246 2.39137 28.6425 2.08455 28.1111ZM31.5076 26.5933C30.9762 26.2864 30.2966 26.4685 29.9898 27C29.683 27.5314 29.8651 28.2109 30.3965 28.5178C30.9279 28.8246 31.6075 28.6425 31.9143 28.1111C32.2211 27.5796 32.0391 26.9001 31.5076 26.5933ZM2.08455 10.8889C2.39137 10.3574 3.07092 10.1753 3.60235 10.4822C4.13379 10.789 4.31587 11.4685 4.00905 12C3.70222 12.5314 3.02268 12.7135 2.49124 12.4067C1.9598 12.0998 1.77772 11.4203 2.08455 10.8889Z"
        fill="white" />
</svg>