<svg width="25" height="19" viewBox="0 0 25 19" fill="none" xmlns="http://www.w3.org/2000/svg">
    <path fill-rule="evenodd" clip-rule="evenodd"
        d="M1.76074 9.31487C1.76074 10.7541 2.26436 12.0757 3.10498 13.113C3.47848 12.5229 4.13445 12.1483 4.85759 12.1483H10.7377C11.4609 12.1483 12.1169 12.523 12.4904 13.1132C13.3311 12.0758 13.8348 10.7542 13.8348 9.31487C13.8348 5.98071 11.1319 3.27783 7.79778 3.27783C4.46362 3.27783 1.76074 5.98071 1.76074 9.31487ZM7.79778 15.3519C6.28429 15.3519 4.90089 14.795 3.84133 13.8749C3.98937 13.4415 4.39719 13.1483 4.85759 13.1483H10.7377C11.1981 13.1483 11.606 13.4416 11.754 13.875C10.6945 14.795 9.31116 15.3519 7.79778 15.3519ZM7.79778 2.27783C3.91133 2.27783 0.760742 5.42842 0.760742 9.31487C0.760742 13.2013 3.91133 16.3519 7.79778 16.3519C11.6842 16.3519 14.8348 13.2013 14.8348 9.31487C14.8348 5.42842 11.6842 2.27783 7.79778 2.27783ZM9.76089 8.20369C9.76089 9.2878 8.88204 10.1666 7.79792 10.1666C6.71381 10.1666 5.83496 9.2878 5.83496 8.20369C5.83496 7.11957 6.71381 6.24072 7.79792 6.24072C8.88204 6.24072 9.76089 7.11957 9.76089 8.20369ZM10.7609 8.20369C10.7609 9.84009 9.43432 11.1666 7.79792 11.1666C6.16153 11.1666 4.83496 9.84009 4.83496 8.20369C4.83496 6.56729 6.16153 5.24072 7.79792 5.24072C9.43432 5.24072 10.7609 6.56729 10.7609 8.20369Z"
        fill="white" />
    <path fill-rule="evenodd" clip-rule="evenodd"
        d="M10.2045 1.42578H21.686C22.6679 1.42578 23.4638 2.22172 23.4638 3.20356C23.4638 4.1854 22.6679 4.98134 21.686 4.98134H12.3654C12.6556 5.28716 12.9155 5.62211 13.1401 5.98134H21.686C23.2201 5.98134 24.4638 4.73768 24.4638 3.20356C24.4638 1.66943 23.2201 0.425781 21.686 0.425781H10.2045C8.72907 0.425781 7.52229 1.57614 7.43216 3.0289C7.55309 3.02198 7.67493 3.01847 7.7976 3.01847C8.01217 3.01847 8.22423 3.02921 8.43328 3.05017C8.51106 2.14014 9.27437 1.42578 10.2045 1.42578ZM7.43353 15.6007C7.42904 15.6653 7.42676 15.7305 7.42676 15.7962C7.42676 17.3303 8.67041 18.5739 10.2045 18.5739H21.686C23.2201 18.5739 24.4638 17.3303 24.4638 15.7962C24.4638 14.262 23.2201 13.0184 21.686 13.0184H12.89C12.6241 13.3834 12.3199 13.7187 11.9833 14.0184H21.686C22.6679 14.0184 23.4638 14.8143 23.4638 15.7962C23.4638 16.778 22.6679 17.5739 21.686 17.5739H10.2045C9.2227 17.5739 8.42676 16.778 8.42676 15.7962C8.42676 15.7226 8.43123 15.65 8.43993 15.5787C8.22873 15.6001 8.01444 15.6111 7.7976 15.6111C7.6754 15.6111 7.55401 15.6076 7.43353 15.6007ZM13.3547 12.2776H21.686C23.2201 12.2776 24.4638 11.0339 24.4638 9.49978C24.4638 7.96566 23.2201 6.72201 21.686 6.72201H13.537C13.6817 7.04197 13.8005 7.3762 13.8907 7.72201H21.686C22.6679 7.72201 23.4638 8.51794 23.4638 9.49978C23.4638 10.4816 22.6679 11.2776 21.686 11.2776H13.7819C13.668 11.6252 13.5246 11.9595 13.3547 12.2776Z"
        fill="white" />
    <rect x="17.3354" y="2.92597" width="3.88889" height="0.555556" rx="0.277778" fill="white" stroke="white"
        stroke-width="0.555556" />
    <rect x="17.3354" y="9.22236" width="3.88889" height="0.555556" rx="0.277778" fill="white" stroke="white"
        stroke-width="0.555556" />
    <rect x="17.3354" y="15.5185" width="3.88889" height="0.555556" rx="0.277778" fill="white" stroke="white"
        stroke-width="0.555556" />
</svg>