<svg width="27" height="17" viewBox="0 0 27 17" fill="none" xmlns="http://www.w3.org/2000/svg">
    <path fill-rule="evenodd" clip-rule="evenodd"
        d="M6.9872 1.287H19.8587C20.7331 1.287 21.442 1.99589 21.442 2.87033C21.442 3.74479 20.7331 4.45367 19.8587 4.45367H6.9872C6.11275 4.45367 5.40386 3.74478 5.40386 2.87033C5.40386 1.99588 6.11275 1.287 6.9872 1.287ZM4.34831 2.87033C4.34831 1.41292 5.52978 0.231445 6.9872 0.231445H19.8587C21.3161 0.231445 22.4976 1.41292 22.4976 2.87033C22.4976 4.32775 21.3161 5.50922 19.8587 5.50922H13.951V7.79628H20.7646C22.222 7.79628 23.4034 8.97775 23.4034 10.4352V11.8426H23.8155C25.1758 11.8426 26.2785 12.9453 26.2785 14.3056C26.2785 15.6658 25.1758 16.7685 23.8155 16.7685H21.5574C20.1971 16.7685 19.0944 15.6658 19.0944 14.3056C19.0944 12.9453 20.1971 11.8426 21.5574 11.8426H22.3479V10.4352C22.3479 9.56072 21.639 8.85183 20.7646 8.85183H13.951V11.8426H14.7413C16.1016 11.8426 17.2043 12.9453 17.2043 14.3056C17.2043 15.6658 16.1016 16.7685 14.7413 16.7685H12.4831C11.1229 16.7685 10.0202 15.6658 10.0202 14.3056C10.0202 12.9453 11.1229 11.8426 12.4831 11.8426H12.8954V8.85183H6.45942C5.58497 8.85183 4.87609 9.56072 4.87609 10.4352V11.8426H5.66643C7.02669 11.8426 8.12939 12.9453 8.12939 14.3056C8.12939 15.6658 7.02669 16.7685 5.66643 16.7685H3.40828C2.04802 16.7685 0.945312 15.6658 0.945312 14.3056C0.945312 12.9453 2.04802 11.8426 3.40828 11.8426H3.82053V10.4352C3.82053 8.97775 5.002 7.79628 6.45942 7.79628H12.8954V5.50922H6.9872C5.52978 5.50922 4.34831 4.32775 4.34831 2.87033ZM3.40828 12.8982H5.66643C6.44372 12.8982 7.07384 13.5283 7.07384 14.3056C7.07384 15.0829 6.44372 15.713 5.66643 15.713H3.40828C2.63099 15.713 2.00087 15.0829 2.00087 14.3056C2.00087 13.5283 2.63099 12.8982 3.40828 12.8982ZM14.7413 12.8982H12.4831C11.7059 12.8982 11.0757 13.5283 11.0757 14.3056C11.0757 15.0829 11.7059 15.713 12.4831 15.713H14.7413C15.5186 15.713 16.1487 15.0829 16.1487 14.3056C16.1487 13.5283 15.5186 12.8982 14.7413 12.8982ZM21.5574 12.8982H23.8155C24.5928 12.8982 25.2229 13.5283 25.2229 14.3056C25.2229 15.0829 24.5928 15.713 23.8155 15.713H21.5574C20.7801 15.713 20.15 15.0829 20.15 14.3056C20.15 13.5283 20.7801 12.8982 21.5574 12.8982Z"
        fill="white" />
</svg>