
<svg xmlns="http://www.w3.org/2000/svg" xmlns:xlink="http://www.w3.org/1999/xlink" version="1.1" width="12" height="12" viewBox="0 0 1080 1080" xml:space="preserve">
<g transform="matrix(84.13 0 0 84.13 539.46 539.49)" >
<path vector-effect="non-scaling-stroke" fill="currentColor" transform=" translate(-30.93, -30)" d="M 37.2003 29.9957 C 34.7419 30.2096 33.3295 30.4063 32.4623 31.0563 C 31.4432 31.8175 31.2018 33.2117 30.9337 36 C 30.6565 33.1091 30.4062 31.7234 29.2888 30.9793 C 28.4216 30.3977 27.0181 30.2096 24.667 30.0043 C 27.1164 29.7904 28.5378 29.5937 29.396 28.9522 C 30.4241 28.1825 30.6655 26.7969 30.9337 24 C 31.184 26.5745 31.4075 27.9515 32.2388 28.747 C 33.0702 29.5424 34.5184 29.7648 37.2003 29.9957 Z" stroke-linecap="round" />
</g>
</svg>